name D:\school\WTK\thesis\model\3dpredictsim\Results\test_WL_v2\Fal_s1_bCst_PF_linear_ls135_k200_Mmtp_ig24_v3.mot
datacolumns 128
datarows 4
range 0.57940158 0.61416567
endheader
time	pelvis_tilt	pelvis_list	pelvis_rotation	pelvis_tx	pelvis_ty	pelvis_tz	hip_flexion_l	hip_adduction_l	hip_rotation_l	hip_flexion_r	hip_adduction_r	hip_rotation_r	knee_angle_l	knee_angle_r	ankle_angle_l	ankle_angle_r	subtalar_angle_l	subtalar_angle_r	tmt_angle_l	tmt_angle_r	mtp_angle_l	mtp_angle_r	lumbar_extension	lumbar_bending	lumbar_rotation	arm_flex_l	arm_add_l	arm_rot_l	arm_flex_r	arm_add_r	arm_rot_r	elbow_flex_l	elbow_flex_r	pro_sup_l	pro_sup_r	glut_med1_l/activation	glut_med2_l/activation	glut_med3_l/activation	glut_min1_l/activation	glut_min2_l/activation	glut_min3_l/activation	semimem_l/activation	semiten_l/activation	bifemlh_l/activation	bifemsh_l/activation	sar_l/activation	add_long_l/activation	add_brev_l/activation	add_mag1_l/activation	add_mag2_l/activation	add_mag3_l/activation	tfl_l/activation	pect_l/activation	grac_l/activation	glut_max1_l/activation	glut_max2_l/activation	glut_max3_l/activation	iliacus_l/activation	psoas_l/activation	quad_fem_l/activation	gem_l/activation	peri_l/activation	rect_fem_l/activation	vas_med_l/activation	vas_int_l/activation	vas_lat_l/activation	med_gas_l/activation	lat_gas_l/activation	soleus_l/activation	tib_post_l/activation	flex_dig_l/activation	flex_hal_l/activation	tib_ant_l/activation	per_brev_l/activation	per_long_l/activation	per_tert_l/activation	ext_dig_l/activation	ext_hal_l/activation	ercspn_l/activation	intobl_l/activation	extobl_l/activation	glut_med1_r/activation	glut_med2_r/activation	glut_med3_r/activation	glut_min1_r/activation	glut_min2_r/activation	glut_min3_r/activation	semimem_r/activation	semiten_r/activation	bifemlh_r/activation	bifemsh_r/activation	sar_r/activation	add_long_r/activation	add_brev_r/activation	add_mag1_r/activation	add_mag2_r/activation	add_mag3_r/activation	tfl_r/activation	pect_r/activation	grac_r/activation	glut_max1_r/activation	glut_max2_r/activation	glut_max3_r/activation	iliacus_r/activation	psoas_r/activation	quad_fem_r/activation	gem_r/activation	peri_r/activation	rect_fem_r/activation	vas_med_r/activation	vas_int_r/activation	vas_lat_r/activation	med_gas_r/activation	lat_gas_r/activation	soleus_r/activation	tib_post_r/activation	flex_dig_r/activation	flex_hal_r/activation	tib_ant_r/activation	per_brev_r/activation	per_long_r/activation	per_tert_r/activation	ext_dig_r/activation	ext_hal_r/activation	ercspn_r/activation	intobl_r/activation	extobl_r/activation	
          0.57940158	         -2.92606306	          2.34432554	         -5.89348282	          0.72425197	          0.91833400	          0.00362984	         29.45712991	          3.20952448	         -4.07153068	        -16.73341747	         -0.86964070	          6.65716005	         -9.05901120	         -7.60013099	          9.01784460	         -0.91445714	         -6.68103547	          4.26452688	         -2.86867819	          3.84511958	         -1.53503480	         12.95377976	         -2.21622735	         -0.34661326	          2.20676132	         -5.82185448	        -13.52824395	          6.15587418	          6.13227337	        -13.44970797	         17.00061683	         17.11540089	         36.03306912	         86.51662706	         86.51662706	          0.05965667	          0.05965669	          0.05000132	          0.05965673	          0.05965670	          0.05965544	          0.27211112	          0.10193533	          0.17024249	          0.09135635	          0.05000032	          0.14423539	          0.18231638	          0.19107063	          0.20639759	          0.12019521	          0.05000047	          0.05000343	          0.14347679	          0.05976366	          0.08320194	          0.14325282	          0.05000032	          0.05000019	          0.16966893	          0.24508634	          0.12149230	          0.05000018	          0.06921512	          0.06736147	          0.06103245	          0.06787586	          0.06246443	          0.06104990	          0.05000008	          0.05000109	          0.05000102	          0.47690209	          0.27758327	          0.19759026	          0.13183579	          0.50501563	          0.09308328	          0.05689197	          0.13009669	          0.11320157	          0.24371500	          0.09757475	          0.07296982	          0.27863662	          0.17212814	          0.10903037	          0.05000242	          0.05000060	          0.05000042	          0.05000299	          0.12071325	          0.05000040	          0.05000065	          0.05000061	          0.05000149	          0.05000092	          0.31265801	          0.05000391	          0.05000139	          0.05000312	          0.05000218	          0.05000141	          0.51301973	          0.67592226	          0.05000029	          0.05000103	          0.07116084	          0.38200078	          0.07332988	          0.07122675	          0.05885886	          0.27913668	          0.37198542	          0.31125975	          0.28941020	          0.33540908	          0.42167095	          0.05000021	          0.05763665	          0.11253786	          0.05000127	          0.05000096	          0.05000538	          0.05000002	          0.05000008	          0.05000077	
          0.59098961	         -2.92970656	          2.43850002	         -6.26265603	          0.74170444	          0.91736880	          0.00347425	         28.88436733	          3.55048783	         -3.85800419	        -16.96538795	         -1.22819020	          6.47246356	         -9.62305160	         -8.87627008	          8.36881845	         -1.31309971	         -6.99977809	          5.11220242	         -2.94906325	          2.64930572	         -1.46347694	         15.37042141	         -1.99707507	         -0.51126936	          2.29329804	         -6.75589245	        -13.51337580	          6.12817581	          5.87870118	        -13.45169221	         17.32879473	         16.62367722	         37.33281894	         86.51662706	         86.51662706	          0.05000003	          0.05000013	          0.09333230	          0.05000012	          0.05000015	          0.05000018	          0.22806430	          0.08543502	          0.14268520	          0.07656850	          0.06564993	          0.12088925	          0.26601824	          0.27338873	          0.17299855	          0.10073964	          0.05000062	          0.07263337	          0.12025405	          0.05009104	          0.07989225	          0.13941726	          0.05000112	          0.07117875	          0.53155727	          0.20541476	          0.10182870	          0.07117857	          0.07610613	          0.07477080	          0.06410873	          0.06987660	          0.07117785	          0.06223038	          0.05965724	          0.05007786	          0.05876969	          0.45859662	          0.23265197	          0.23146177	          0.15018142	          0.42326837	          0.17123811	          0.05000001	          0.10903782	          0.09487753	          0.20426480	          0.08178033	          0.06115828	          0.23353387	          0.14426572	          0.09138164	          0.05000717	          0.05000159	          0.05000114	          0.05000085	          0.10117381	          0.09456974	          0.05000389	          0.05243743	          0.05011864	          0.05856502	          0.26204799	          0.05000958	          0.05001121	          0.05002616	          0.05001505	          0.05003388	          0.42997690	          0.60154115	          0.05000358	          0.05014931	          0.05965201	          0.33212913	          0.13961438	          0.13585383	          0.13514378	          0.23395255	          0.31177180	          0.26281670	          0.25057758	          0.38746561	          0.48296794	          0.05000003	          0.05000040	          0.13361209	          0.05000017	          0.05000005	          0.05000020	          0.05000019	          0.07117874	          0.06718712	
          0.60257764	         -2.93014439	          2.53553065	         -6.59831598	          0.75951468	          0.91642781	          0.00333860	         28.21181206	          3.79615660	         -3.60274421	        -17.19865692	         -1.59384606	          6.27524690	        -10.34958793	        -10.14068751	          7.77514836	         -1.80227900	         -7.32954617	          5.93433819	         -3.09503848	          1.26949375	         -1.40994855	         17.93576319	         -1.75455198	         -0.68896233	          2.36757177	         -7.72703437	        -13.50358668	          6.14156223	          5.53909065	        -13.44993730	         17.58619096	         16.19710571	         38.59845055	         86.51662706	         86.51662706	          0.21287055	          0.20430459	          0.25670622	          0.28348833	          0.18288296	          0.22701443	          0.19114751	          0.07855548	          0.11958879	          0.08496035	          0.05502401	          0.10132093	          0.22295775	          0.22913522	          0.14499567	          0.12256098	          0.05000122	          0.06087798	          0.10310306	          0.05000084	          0.06696053	          0.11809142	          0.05965175	          0.05965708	          0.44551361	          0.17216429	          0.20069847	          0.05965685	          0.06378685	          0.06266767	          0.05373147	          0.05856565	          0.05965631	          0.05215711	          0.05000055	          0.05000130	          0.05000130	          0.51982674	          0.35022061	          0.19399513	          0.30333395	          0.52139352	          0.19849813	          0.05000176	          0.15322313	          0.07951963	          0.26572170	          0.06854261	          0.05125874	          0.29489792	          0.12091346	          0.07658973	          0.05000320	          0.05000072	          0.05000059	          0.05000101	          0.08479808	          0.07926188	          0.05000101	          0.05000118	          0.05000284	          0.05000223	          0.21963048	          0.05000661	          0.05000205	          0.05001857	          0.05000524	          0.05000330	          0.36037632	          0.61024584	          0.05000091	          0.05000257	          0.05000067	          0.27836718	          0.14734925	          0.14920198	          0.11335657	          0.19608241	          0.26130499	          0.22027428	          0.21001640	          0.36954555	          0.45855515	          0.05000012	          0.08469210	          0.14982194	          0.05000038	          0.05000017	          0.05000068	          0.05000009	          0.05965697	          0.05631151	
          0.61416567	         -2.93017589	          2.63258913	         -6.89066141	          0.77744681	          0.91557050	          0.00317370	         27.52687115	          4.01556727	         -3.34459296	        -17.38776417	         -1.95963583	          6.07901347	        -11.06130695	        -11.44281282	          7.22648148	         -2.43392583	         -7.66206285	          6.72885347	         -3.02790445	         -0.20097395	         -1.29185337	         20.57799177	         -1.51521081	         -0.87841197	          2.43530367	         -8.68104317	        -13.49337445	          6.18072489	          5.15059767	        -13.45232824	         17.79777430	         15.81693674	         39.80325027	         86.51662706	         86.51662706	          0.30785805	          0.31213592	          0.33852590	          0.23760064	          0.22471360	          0.22223251	          0.16020632	          0.06584029	          0.10023097	          0.07120788	          0.05000194	          0.08492008	          0.18686743	          0.19204513	          0.12152596	          0.15247965	          0.05000119	          0.05102442	          0.08641413	          0.19660129	          0.16136691	          0.14748328	          0.05000022	          0.05000048	          0.37339796	          0.14429606	          0.16821180	          0.05000035	          0.06803403	          0.07391704	          0.06646722	          0.05000011	          0.05000030	          0.05000004	          0.05000030	          0.05000077	          0.05000077	          0.59142460	          0.34386478	          0.21297652	          0.37295881	          0.53807886	          0.27903496	          0.07309699	          0.12842088	          0.06664772	          0.28410593	          0.05744767	          0.05000019	          0.28115313	          0.10134121	          0.06419221	          0.05000319	          0.05000052	          0.05000037	          0.05000099	          0.07107271	          0.11718620	          0.05267240	          0.05000384	          0.05000355	          0.05000161	          0.18407901	          0.07122027	          0.05000268	          0.05000318	          0.05000226	          0.05000179	          0.30204199	          0.59677562	          0.05000035	          0.05000131	          0.05000041	          0.23330766	          0.18209615	          0.18546291	          0.16507077	          0.16434234	          0.21900728	          0.18461825	          0.17602086	          0.38100580	          0.51455485	          0.08650877	          0.12620450	          0.14665957	          0.05001230	          0.05000052	          0.05000197	          0.06413590	          0.05000025	          0.05000007	
